<svg width="18" height="18" viewBox="0 0 18 18" fill="none" xmlns="http://www.w3.org/2000/svg">
<path d="M17.25 9C17.25 8.17102 17.2298 7.42391 17.1844 6.75H17.18H17.1713H17.1625H17.1537H17.1449H17.136H17.1271H17.1181H17.1091H17.1H17.0909H17.0817H17.0725H17.0633H17.054H17.0447H17.0354H17.026H17.0165H17.0071H16.9975H16.988H16.9784H16.9687H16.9591H16.9494H16.9396H16.9298H16.92H16.9101H16.9002H16.8903H16.8803H16.8703H16.8602H16.8501H16.84H16.8298H16.8196H16.8094H16.7991H16.7888H16.7784H16.7681H16.7576H16.7472H16.7367H16.7262H16.7156H16.705H16.6944H16.6838H16.6731H16.6623H16.6516H16.6408H16.63H16.6191H16.6082H16.5973H16.5864H16.5754H16.5644H16.5533H16.5423H16.5312H16.52H16.5088H16.4977H16.4864H16.4752H16.4639H16.4526H16.4412H16.4298H16.4184H16.407H16.3956H16.3841H16.3726H16.361H16.3494H16.3378H16.3262H16.3146H16.3029H16.2912H16.2795H16.2677H16.2559H16.2441H16.2323H16.2204H16.2085H16.1966H16.1847H16.1727H16.1608H16.1488H16.1367H16.1247H16.1126H16.1005H16.0884H16.0762H16.0641H16.0519H16.0397H16.0274H16.0152H16.0029H15.9906H15.9783H15.9659H15.9536H15.9412H15.9288H15.9164H15.9039H15.8915H15.879H15.8665H15.854H15.8415H15.8289H15.8163H15.8037H15.7911H15.7785H15.7659H15.7532H15.7405H15.7278H15.7151H15.7024H15.6896H15.6769H15.6641H15.6513H15.6385H15.6257H15.6128H15.6H15.5871H15.5742H15.5613H15.5484H15.5355H15.5225H15.5096H15.4966H15.4837H15.4707H15.4577H15.4446H15.4316H15.4186H15.4055H15.3925H15.3794H15.3663H15.3532H15.3401H15.327H15.3139H15.3007H15.2876H15.2744H15.2612H15.2481H15.2349H15.2217H15.2085H15.1953H15.1821H15.1688H15.1556H15.1423H15.1291H15.1158H15.1026H15.0893H15.076H15.0627H15.0495H15.0362H15.0229H15.0095H14.9962H14.9829H14.9696H14.9563H14.9429H14.9296H14.9163H14.9029H14.8896H14.8762H14.8629H14.8495H14.8361H14.8228H14.8094H14.796H14.7827H14.7693H14.7559H14.7425H14.7292H14.7158H14.7024H14.689H14.6757H14.6623H14.6489H14.6355H14.6221H14.6088H14.5954H14.582H14.5686H14.5553H14.5419H14.5285H14.5152H14.5018H14.4884H14.4751H14.4617H14.4484H14.435H14.4217H14.4083H14.395H14.3816H14.3683H14.355H14.3417H14.3283H14.315H14.3017H14.2884H14.2751H14.2618H14.2486H14.2353H14.222H14.2088H14.1955H14.1822H14.169H14.1558H14.1426H14.1293H14.1161H14.1029H14.0897H14.0766H14.0634H14.0502H14.0371H14.0239H14.0108H13.9977H13.9845H13.9714H13.9583H13.9453H13.9322H13.9191H13.9061H13.8931H13.88H13.867H13.854H13.841H13.8281H13.8151H13.8022H13.7892H13.7763H13.7634H13.7505H13.7376H13.7248H13.7119H13.6991H13.6863H13.6735H13.6607H13.6479H13.6351H13.6224H13.6097H13.597H13.5843H13.5716H13.559H13.5463H13.5337H13.5211H13.5085H13.4959H13.4834H13.4709H13.4584H13.4459H13.4334H13.4209H13.4085H13.3961H13.3837H13.3713H13.359H13.3466H13.3343H13.322H13.3098H13.2975H13.2853H13.2731H13.2609H13.2487H13.2366H13.2245H13.2124H13.2003H13.1883H13.1763H13.1643H13.1523H13.1404H13.1284H13.1165H13.1047H13.0928H13.081H13.0692H13.0574H13.0457H13.0339H13.0223H13.0106H12.9989H12.9873H12.9757H12.9642H12.9526H12.9411H12.9297H12.9182H12.9068H12.8954H12.884H12.8727H12.8614H12.8501H12.8389H12.8277H12.8165H12.8053H12.7942H12.7831H12.772H12.761H12.75C11.3493 6.75 10.5 7.85145 10.5 9C10.5 10.1486 11.3493 11.25 12.75 11.25L16.0152 11.25H17.1844C17.2298 10.5761 17.25 9.82898 17.25 9ZM17.0215 12.75L16.0152 12.75L12.75 12.75C10.4007 12.75 9 10.8514 9 9C9 7.14855 10.4007 5.25 12.75 5.25H12.761H12.772H12.7831H12.7942H12.8053H12.8165H12.8277H12.8389H12.8501H12.8614H12.8727H12.884H12.8954H12.9068H12.9182H12.9297H12.9411H12.9526H12.9642H12.9757H12.9873H12.9989H13.0106H13.0223H13.0339H13.0457H13.0574H13.0692H13.081H13.0928H13.1047H13.1165H13.1284H13.1404H13.1523H13.1643H13.1763H13.1883H13.2003H13.2124H13.2245H13.2366H13.2487H13.2609H13.2731H13.2853H13.2975H13.3098H13.322H13.3343H13.3466H13.359H13.3713H13.3837H13.3961H13.4085H13.4209H13.4334H13.4459H13.4584H13.4709H13.4834H13.4959H13.5085H13.5211H13.5337H13.5463H13.559H13.5716H13.5843H13.597H13.6097H13.6224H13.6351H13.6479H13.6607H13.6735H13.6863H13.6991H13.7119H13.7248H13.7376H13.7505H13.7634H13.7763H13.7892H13.8022H13.8151H13.8281H13.841H13.854H13.867H13.88H13.8931H13.9061H13.9191H13.9322H13.9453H13.9583H13.9714H13.9845H13.9977H14.0108H14.0239H14.0371H14.0502H14.0634H14.0766H14.0897H14.1029H14.1161H14.1293H14.1426H14.1558H14.169H14.1822H14.1955H14.2088H14.222H14.2353H14.2486H14.2618H14.2751H14.2884H14.3017H14.315H14.3283H14.3417H14.355H14.3683H14.3816H14.395H14.4083H14.4217H14.435H14.4484H14.4617H14.4751H14.4884H14.5018H14.5152H14.5285H14.5419H14.5553H14.5686H14.582H14.5954H14.6088H14.6221H14.6355H14.6489H14.6623H14.6757H14.689H14.7024H14.7158H14.7292H14.7425H14.7559H14.7693H14.7827H14.796H14.8094H14.8228H14.8361H14.8495H14.8629H14.8762H14.8896H14.9029H14.9163H14.9296H14.9429H14.9563H14.9696H14.9829H14.9962H15.0095H15.0229H15.0362H15.0495H15.0627H15.076H15.0893H15.1026H15.1158H15.1291H15.1423H15.1556H15.1688H15.1821H15.1953H15.2085H15.2217H15.2349H15.2481H15.2612H15.2744H15.2876H15.3007H15.3139H15.327H15.3401H15.3532H15.3663H15.3794H15.3925H15.4055H15.4186H15.4316H15.4446H15.4577H15.4707H15.4837H15.4966H15.5096H15.5225H15.5355H15.5484H15.5613H15.5742H15.5871H15.6H15.6128H15.6257H15.6385H15.6513H15.6641H15.6769H15.6896H15.7024H15.7151H15.7278H15.7405H15.7532H15.7659H15.7785H15.7911H15.8037H15.8163H15.8289H15.8415H15.854H15.8665H15.879H15.8915H15.9039H15.9164H15.9288H15.9412H15.9536H15.9659H15.9783H15.9906H16.0029H16.0152H16.0274H16.0397H16.0519H16.0641H16.0762H16.0884H16.1005H16.1126H16.1247H16.1367H16.1488H16.1608H16.1727H16.1847H16.1966H16.2085H16.2204H16.2323H16.2441H16.2559H16.2677H16.2795H16.2912H16.3029H16.3146H16.3262H16.3378H16.3494H16.361H16.3726H16.3841H16.3956H16.407H16.4184H16.4298H16.4412H16.4526H16.4639H16.4752H16.4864H16.4977H16.5088H16.52H16.5312H16.5423H16.5533H16.5644H16.5754H16.5864H16.5973H16.6082H16.6191H16.63H16.6408H16.6516H16.6623H16.6731H16.6838H16.6944H16.705H16.7156H16.7262H16.7367H16.7472H16.7576H16.7681H16.7784H16.7888H16.7991H16.8094H16.8196H16.8298H16.84H16.8501H16.8602H16.8703H16.8803H16.8903H16.9002H16.9101H16.92H16.9298H16.9396H16.9494H16.9591H16.9687H16.9784H16.988H16.9975H17.0071H17.0165H17.0215C16.7313 3.4344 16.1498 2.4258 15.1981 1.80644C14.0326 1.048 12.1482 0.75 9 0.75C7.16424 0.75 5.74025 0.849342 4.62973 1.09615C3.52774 1.34105 2.78095 1.72108 2.25102 2.25102C1.72108 2.78095 1.34105 3.52774 1.09615 4.62973C0.849343 5.74025 0.75 7.16424 0.75 9C0.75 10.8358 0.849343 12.2598 1.09615 13.3703C1.34105 14.4723 1.72108 15.219 2.25102 15.749C2.78095 16.2789 3.52774 16.6589 4.62973 16.9039C5.74025 17.1507 7.16424 17.25 9 17.25C12.1482 17.25 14.0326 16.952 15.1981 16.1936C16.1498 15.5742 16.7313 14.5656 17.0215 12.75ZM12.75 9.75C12.3358 9.75 12 9.41421 12 9C12 8.58579 12.3358 8.25 12.75 8.25H14.25C14.6642 8.25 15 8.58579 15 9C15 9.41421 14.6642 9.75 14.25 9.75H12.75Z" stroke="#727190" stroke-width="1.5" stroke-linecap="round" stroke-linejoin="round"/>
</svg>
