<svg width="69" height="16" viewBox="0 0 69 16" fill="none" xmlns="http://www.w3.org/2000/svg">
<path d="M19.2807 10.8206C18.6224 11.7257 17.699 12.1783 16.5104 12.1783C15.331 12.1783 14.403 11.7257 13.7264 10.8206C13.0681 9.91543 12.739 8.70857 12.739 7.2C12.739 5.69143 13.0681 4.48457 13.7264 3.57943C14.403 2.67428 15.331 2.22171 16.5104 2.22171C17.699 2.22171 18.6224 2.67428 19.2807 3.57943C19.9481 4.47543 20.2819 5.68229 20.2819 7.2C20.2819 8.71771 19.9481 9.92457 19.2807 10.8206ZM16.5104 10.6423C17.2236 10.6423 17.7676 10.3451 18.1424 9.75086C18.5173 9.15657 18.7047 8.30629 18.7047 7.2C18.7047 6.09371 18.5173 5.24343 18.1424 4.64914C17.7676 4.05486 17.2236 3.75771 16.5104 3.75771C15.8064 3.75771 15.2624 4.05486 14.8784 4.64914C14.5036 5.24343 14.3161 6.09371 14.3161 7.2C14.3161 8.30629 14.5036 9.15657 14.8784 9.75086C15.2624 10.3451 15.8064 10.6423 16.5104 10.6423ZM22.1691 10.1074C22.4525 10.1074 22.6948 10.208 22.8959 10.4091C23.0971 10.6103 23.1976 10.8526 23.1976 11.136C23.1976 11.4194 23.0971 11.6617 22.8959 11.8629C22.6948 12.064 22.4525 12.1646 22.1691 12.1646C21.8856 12.1646 21.6434 12.064 21.4422 11.8629C21.2411 11.6617 21.1405 11.4194 21.1405 11.136C21.1405 10.8526 21.2365 10.6103 21.4285 10.4091C21.6296 10.208 21.8765 10.1074 22.1691 10.1074ZM30.5843 10.8206C29.926 11.7257 29.0026 12.1783 27.814 12.1783C26.6346 12.1783 25.7066 11.7257 25.03 10.8206C24.3717 9.91543 24.0426 8.70857 24.0426 7.2C24.0426 5.69143 24.3717 4.48457 25.03 3.57943C25.7066 2.67428 26.6346 2.22171 27.814 2.22171C29.0026 2.22171 29.926 2.67428 30.5843 3.57943C31.2517 4.47543 31.5854 5.68229 31.5854 7.2C31.5854 8.71771 31.2517 9.92457 30.5843 10.8206ZM27.814 10.6423C28.5271 10.6423 29.0711 10.3451 29.446 9.75086C29.8209 9.15657 30.0083 8.30629 30.0083 7.2C30.0083 6.09371 29.8209 5.24343 29.446 4.64914C29.0711 4.05486 28.5271 3.75771 27.814 3.75771C27.11 3.75771 26.566 4.05486 26.182 4.64914C25.8071 5.24343 25.6197 6.09371 25.6197 7.2C25.6197 8.30629 25.8071 9.15657 26.182 9.75086C26.566 10.3451 27.11 10.6423 27.814 10.6423ZM34.63 6.02057H35.8369C36.7511 6.02057 37.5237 6.29486 38.1546 6.84343C38.7854 7.38286 39.1009 8.13257 39.1009 9.09257C39.1009 10.0526 38.7763 10.8069 38.1271 11.3554C37.4871 11.904 36.6917 12.1783 35.7409 12.1783C34.9637 12.1783 34.2871 12 33.7111 11.6434C33.1351 11.2869 32.7237 10.7794 32.4769 10.1211L33.8346 9.33943C34.0997 10.208 34.7351 10.6423 35.7409 10.6423C36.2803 10.6423 36.71 10.5051 37.03 10.2309C37.3591 9.94743 37.5237 9.568 37.5237 9.09257C37.5237 8.62629 37.3637 8.256 37.0437 7.98171C36.7237 7.69829 36.2986 7.55657 35.7683 7.55657H32.9706L33.3409 2.4H38.6894V3.88114H34.7946L34.63 6.02057ZM45.5044 7.89943V10.4914H49.7558V12H43.9272V2.4H49.6872V3.90857H45.5044V6.40457H49.3444V7.89943H45.5044ZM50.4453 2.4H57.4395V3.90857H54.7378V12H53.1607V3.90857H50.4453V2.4ZM64.2972 6.336V2.4H65.8744V12H64.2972V7.84457H60.1829V12H58.6058V2.4H60.1829V6.336H64.2972Z" fill="#B7ABFF"/>
<path d="M3.80834 2.28564L3.7251 2.56841V10.7728L3.80834 10.8559L7.61666 8.60472L3.80834 2.28564Z" fill="#B7ABFF"/>
<path d="M3.80842 2.28571L0 8.60478L3.80842 10.8559V6.87372V2.28571Z" fill="#B7ABFF"/>
<path d="M3.80839 11.577L3.76147 11.6342V14.5567L3.80839 14.6937L7.61902 9.32703L3.80839 11.577Z" fill="#B7ABFF"/>
<path d="M3.80842 14.6937V11.577L0 9.32703L3.80842 14.6937Z" fill="#B7ABFF"/>
<path d="M3.80847 10.8559L7.61679 8.60478L3.80847 6.87372V10.8559Z" fill="#B7ABFF"/>
<path d="M0 8.60478L3.80842 10.8559V6.87372L0 8.60478Z" fill="#B7ABFF"/>
</svg>
